<?xml version="1.0" encoding="UTF-8"?>
<svg version="1.1" xmlns="http://www.w3.org/2000/svg" width="2000" height="2000">
<path d="M0 0 C660 0 1320 0 2000 0 C2000 660 2000 1320 2000 2000 C1340 2000 680 2000 0 2000 C0 1340 0 680 0 0 Z " fill="#FEFEFE" transform="translate(0,0)"/>
<path d="M0 0 C4.38273738 0.01089459 8.76544381 0.01046584 13.14819241 0.00986195 C17.43200025 0.01013573 21.71578862 0.01564766 25.99958992 0.02286339 C28.01465776 0.02599976 30.02972775 0.02800538 32.0447979 0.0287571 C34.86380546 0.03096634 37.68272169 0.03980104 40.50170898 0.050354 C41.29733749 0.04990082 42.092966 0.04944763 42.91270447 0.04898071 C47.87541021 0.07566159 52.78292515 0.33387239 57.73253155 0.69450665 C70.66854653 1.51722659 83.63670834 1.34752125 96.59279213 1.34662171 C100.51739331 1.34745828 104.44198572 1.35407448 108.36658204 1.35993242 C115.23193648 1.36940327 122.09728649 1.3752761 128.96264648 1.37874031 C139.17291625 1.38391542 149.38317452 1.39477988 159.59343822 1.40681975 C176.78116034 1.42694718 193.96888377 1.44265968 211.1566124 1.45597839 C234.65318954 1.47424503 258.14975683 1.49895306 281.64632608 1.5253523 C292.6081763 1.53765952 303.57002686 1.54965209 314.53187752 1.56156158 C316.17785483 1.56335037 316.17785483 1.56335037 317.85708421 1.56517529 C343.96054748 1.59346997 370.06401358 1.61867603 396.16748047 1.64337158 C397.30912371 1.64445278 398.45076695 1.64553398 399.62700544 1.64664794 C415.82712385 1.66198681 432.02724239 1.6771914 448.22736096 1.69236243 C467.86560403 1.71075474 487.50384702 1.72922058 507.14208984 1.74786377 C508.84950968 1.74948297 508.84950968 1.74948297 510.59142285 1.75113488 C536.61498219 1.77583035 562.63854029 1.80140466 588.66209602 1.82967377 C590.30616058 1.83145914 590.30616058 1.83145914 591.98343856 1.83328059 C602.93111317 1.84518881 613.87878761 1.85724742 624.8264618 1.8695308 C648.28280548 1.89581513 671.73914754 1.91947621 695.19549895 1.93770419 C712.30968361 1.95104384 729.42386227 1.96772635 746.53804038 1.98779929 C756.67988187 1.99957917 766.82171734 2.0086932 776.9635644 2.01384526 C783.76790697 2.01756892 790.57224001 2.02488893 797.37657617 2.03492958 C801.23390024 2.04052158 805.0912092 2.04473086 808.94853769 2.04445845 C824.87980011 2.04441556 840.79389612 2.2085257 856.71914864 2.66895294 C857.82092296 2.70072966 857.82092296 2.70072966 858.94495536 2.73314833 C870.29799852 3.06727023 881.6304508 3.53766231 892.953125 4.44561768 C894.15861496 4.54081696 894.15861496 4.54081696 895.38845825 4.63793945 C936.23812349 7.94117382 986.61766531 23.28582605 1016.65625 52.99249268 C1046.93249523 89.9099788 1058.1979197 122.80670631 1058.25366211 170.68048096 C1058.25907466 174.24285779 1058.29696828 177.80411656 1058.34240627 181.36617661 C1058.37241711 184.15639079 1058.37939054 186.94634057 1058.38038826 189.73670197 C1058.38650806 191.67573691 1058.41579562 193.61465601 1058.44590759 195.5534668 C1058.40149833 204.36158573 1056.4871066 211.21141566 1052.828125 219.19561768 C1052.47634186 219.98431244 1052.12455872 220.7730072 1051.76211548 221.58560181 C1050.91186374 223.46058198 1050.01128372 225.29811099 1049.078125 227.13311768 C1048.74159912 227.79787109 1048.40507324 228.46262451 1048.05834961 229.14752197 C1036.52984069 251.45999579 1019.67617151 269.99465421 999.56542969 284.90704346 C997.85381392 286.17656398 996.15686193 287.46383414 994.4609375 288.75421143 C983.81740937 296.77361625 972.68722393 304.10002643 961.53515625 311.38800049 C959.82972862 312.52679794 958.14588695 313.69929677 956.49609375 314.91729736 C950.76235193 319.08984656 945.5266559 320.63036264 938.578125 321.82061768 C937.48588623 322.01881104 936.39364746 322.21700439 935.26831055 322.42120361 C932.95039461 322.83197769 930.63022215 323.23019535 928.30810547 323.61651611 C926.06239974 323.99022272 923.81895173 324.37789059 921.57861328 324.78253174 C905.84897072 327.60598466 890.40097063 328.5271117 874.4567976 328.79453278 C872.41791868 328.8334156 870.37904349 328.87249491 868.34017188 328.91175929 C849.14721784 329.26514928 829.95554591 329.35399051 810.75979962 329.3612934 C805.83696705 329.3642487 800.91414299 329.37281306 795.99131602 329.38053179 C786.30359435 329.39485855 776.61587434 329.40412007 766.92814525 329.41162048 C758.87239533 329.41801079 750.81665042 329.42669647 742.76090431 329.43677902 C741.58815082 329.43824602 740.41539732 329.43971302 739.20710584 329.44122447 C736.81404948 329.44422559 734.42099313 329.44722983 732.02793678 329.45023713 C701.29780929 329.4884385 670.56767385 329.5137207 639.83753154 329.53641424 C635.85394973 329.53936302 631.87036796 329.54235246 627.88678619 329.54535222 C577.06844841 329.58352388 526.25010738 329.61695845 475.4317597 329.63861137 C463.28225869 329.64378813 451.13275776 329.64915573 438.98325688 329.65461321 C436.82975806 329.65557887 434.67625925 329.65653698 432.52276043 329.65749506 C387.07899828 329.67781488 341.63530358 329.72236876 296.19157636 329.7814292 C262.95069506 329.82461939 229.70982856 329.86438148 196.46892071 329.87924957 C195.44262786 329.87971101 195.44262786 329.87971101 194.39560182 329.88018177 C179.37355872 329.88686492 164.35151564 329.89159983 149.32947136 329.89450621 C143.28555723 329.89570557 137.24164317 329.8971623 131.19772911 329.8986969 C130.53637221 329.89885785 129.87501531 329.8990188 129.19361729 329.89918463 C107.29483466 329.90463751 85.39615477 329.93386549 63.49740985 329.97340312 C42.16481984 330.01137123 20.83233626 330.02352878 -0.50028404 330.00964051 C-13.15693788 330.0021611 -25.81322195 330.01399838 -38.46981648 330.05406368 C-46.93920223 330.07892828 -55.40834046 330.07800967 -63.87773519 330.05676454 C-68.69231741 330.04540301 -73.50619891 330.04461701 -78.3207114 330.07547873 C-99.77358508 330.20480201 -118.6486425 329.08755147 -139.171875 322.19561768 C-139.97809261 321.93560657 -140.78431022 321.67559547 -141.61495867 321.40770525 C-158.34299313 316.01261016 -174.70945118 307.52556389 -188.171875 296.19561768 C-189.03184082 295.48139648 -189.03184082 295.48139648 -189.90917969 294.75274658 C-198.54768786 287.56767996 -206.69517699 280.20365783 -214.03515625 271.67608643 C-215.72935214 269.70933252 -217.43618564 267.75637694 -219.15234375 265.80889893 C-221.99261589 262.58250879 -224.78213665 259.31547632 -227.56591797 256.04034424 C-228.99815233 254.39516898 -230.47455443 252.81989508 -231.98828125 251.25030518 C-250.02663949 231.03632815 -249.5825633 195.2611015 -249.859375 169.63311768 C-249.89270236 167.53739549 -249.92720486 165.44169166 -249.96289062 163.3460083 C-250.04533463 158.26726389 -250.09908693 153.18874989 -250.14129639 148.10952759 C-250.17140524 145.24038207 -250.22284373 142.37224301 -250.27783203 139.503479 C-250.3016434 137.72899068 -250.32494457 135.95449541 -250.34765625 134.17999268 C-250.36745041 133.38882553 -250.38724457 132.59765839 -250.40763855 131.78251648 C-250.47213123 124.21705269 -248.2539478 117.96706587 -245.09130859 111.1741333 C-244.14601492 109.13996975 -243.26056338 107.08619913 -242.37890625 105.02374268 C-235.81983627 90.04017915 -226.96617166 76.47813325 -216.171875 64.19561768 C-215.38167969 63.27264893 -214.59148437 62.34968018 -213.77734375 61.39874268 C-208.09092438 54.9153291 -202.01792905 49.42685389 -195.171875 44.19561768 C-194.32109375 43.52917236 -193.4703125 42.86272705 -192.59375 42.17608643 C-165.71735841 21.77738802 -132.08545921 10.85226703 -99.171875 5.19561768 C-98.45499512 5.06945068 -97.73811523 4.94328369 -96.99951172 4.81329346 C-64.9807841 -0.6851465 -32.36649721 -0.10154815 0 0 Z " fill="#010101" transform="translate(393.171875,402.80438232421875)"/>
<path d="M0 0 C4.3681403 0.0114835 8.73603928 0.00453687 13.10417175 -0.00686836 C39.21747416 -0.06491371 64.94720301 0.93479305 90.83496094 4.63574219 C92.42942718 4.85867693 94.02390993 5.08149369 95.6184082 5.30419922 C129.48520904 10.0755549 162.24532637 17.55048057 194.68383789 28.47851562 C197.54270852 29.40986504 200.42064549 30.26919702 203.29980469 31.13574219 C225.62906527 38.06233639 225.62906527 38.06233639 233.08496094 49.26074219 C233.94831787 50.36499708 234.82399388 51.45970028 235.70996094 52.54589844 C238.09238339 55.46750947 240.40410912 58.4346046 242.68945312 61.43261719 C243.61477557 62.64479606 244.54507576 63.85319234 245.48046875 65.05761719 C256.39873489 79.13583001 265.35488472 94.3282381 271.08496094 111.26074219 C271.31022461 111.91913086 271.53548828 112.57751953 271.76757812 113.25585938 C284.08735623 150.32064113 283.50415063 191.61754433 268.08496094 227.26074219 C267.20057726 229.43352655 266.32016666 231.60793363 265.44433594 233.78417969 C257.0209799 254.31313451 246.43740141 272.09378317 231.08496094 288.26074219 C229.72757813 289.69740234 229.72757813 289.69740234 228.34277344 291.16308594 C221.74577061 298.02001445 214.73098885 303.97567834 207.125 309.67724609 C204.84340192 311.4482424 202.65217401 313.30747147 200.45214844 315.17871094 C189.7744581 324.04520585 181.52542059 328.42163777 167.61914062 329.12207031 C165.05550066 329.26235427 162.52040248 329.50255913 159.96777344 329.77636719 C155.58766829 330.24412936 151.20517156 330.64541375 146.81640625 331.02246094 C144.01664726 331.26670162 141.21884071 331.52780058 138.42089844 331.79199219 C136.49645174 331.96942801 134.57197328 332.14651974 132.64746094 332.32324219 C131.40065552 332.44227905 131.40065552 332.44227905 130.12866211 332.5637207 C127.11582083 332.83252754 124.10275199 333.05411406 121.08496094 333.26074219 C120.11194031 333.327995 120.11194031 333.327995 119.1192627 333.39660645 C99.22049014 334.69786701 79.25499515 334.41590953 59.32488632 334.38951492 C56.17586985 334.3857009 53.02685646 334.38365993 49.87783813 334.38204956 C13.95888641 334.3605722 -21.95845553 334.14773321 -57.87613678 333.85457611 C-61.65706463 333.82381555 -65.43799822 333.79385799 -69.21893311 333.76397705 C-95.3943738 333.55420283 -121.56712741 333.25947558 -147.73925781 332.78808594 C-148.82585001 332.76939516 -149.91244221 332.75070438 -151.03196144 332.73144722 C-170.77954258 332.38639005 -190.40806683 331.68375489 -210.04003906 329.44824219 C-210.81875366 329.36048523 -211.59746826 329.27272827 -212.39978027 329.18231201 C-246.78186304 325.26657969 -295.55881005 310.87385315 -318.14941406 282.69042969 C-343.16256705 248.26967491 -350.2114628 215.85451711 -350.54003906 173.76074219 C-350.54532246 173.09026226 -350.55060585 172.41978233 -350.55604935 171.72898483 C-350.70454328 148.98116951 -348.41083398 128.79299265 -340.91503906 107.26074219 C-340.26817304 105.17271297 -339.63078637 103.08171305 -339.00488281 100.98730469 C-334.2347209 85.3209901 -327.58259071 71.77703793 -316.91503906 59.26074219 C-316.4280957 58.6887207 -315.94115234 58.11669922 -315.43945312 57.52734375 C-313.92878749 55.77543852 -312.39691939 54.04546776 -310.85253906 52.32324219 C-310.39468018 51.80366943 -309.93682129 51.28409668 -309.46508789 50.7487793 C-303.07794786 43.82389228 -295.08380412 39.55494269 -286.54003906 35.82324219 C-285.67282227 35.44055176 -284.80560547 35.05786133 -283.91210938 34.66357422 C-259.84362592 24.18326432 -234.75189824 16.85523104 -208.91503906 12.26074219 C-207.93857422 12.08446289 -206.96210937 11.90818359 -205.95605469 11.7265625 C-168.25558736 5.1726326 -129.22392212 4.22962368 -91.05102539 2.94384766 C-89.18798268 2.8803724 -87.32494563 2.8167311 -85.46191406 2.75292969 C-84.51296768 2.72107574 -83.5640213 2.6892218 -82.58631897 2.65640259 C-76.60131315 2.44053808 -70.62549873 2.13700345 -64.64794922 1.77050781 C-43.08166946 0.45971798 -21.60563134 -0.05735151 0 0 Z " fill="#010101" transform="translate(755.9150390625,874.7392578125)"/>
<path d="M0 0 C2.02162971 0.41933955 4.04507863 0.82787611 6.06982422 1.23187256 C9.60926843 1.94282224 13.14075956 2.68407621 16.67138672 3.43743896 C17.68015869 3.63764648 18.68893066 3.837854 19.72827148 4.04412842 C27.24668029 5.72089585 32.86332419 8.99293124 39.10888672 13.43743896 C40.14400391 14.16189209 41.17912109 14.88634521 42.24560547 15.63275146 C45.2165255 17.88027749 48.17256971 20.14499924 51.10888672 22.43743896 C52.03193604 23.15311035 52.03193604 23.15311035 52.97363281 23.88323975 C85.61767216 49.32004788 104.19675676 80.23306001 116.23535156 119.66351318 C117.12827441 122.49900491 118.10999676 125.29368511 119.09716797 128.09759521 C123.70004838 141.99704543 124.73594949 154.9050653 124.67138672 169.43743896 C124.66815399 170.29704224 124.66492126 171.15664551 124.66159058 172.04229736 C124.29032841 220.0711126 109.78062711 260.64720354 80.28466797 298.57806396 C78.77687123 300.55958499 77.34032428 302.59658231 75.96435547 304.67181396 C69.21143916 314.67548097 60.60588531 319.79638176 50.10888672 325.43743896 C49.19816406 325.93662842 48.28744141 326.43581787 47.34912109 326.95013428 C9.44069093 347.67115762 -29.43952024 358.62949778 -72.70361328 358.74993896 C-74.10367111 358.75436508 -74.10367111 358.75436508 -75.53201294 358.75888062 C-89.38463939 358.768746 -103.05611472 358.11301392 -116.82861328 356.62493896 C-117.61104401 356.54216705 -118.39347473 356.45939514 -119.19961548 356.37411499 C-143.34709473 353.75717671 -143.34709473 353.75717671 -153.76611328 347.12493896 C-154.46534912 346.69543945 -155.16458496 346.26593994 -155.88500977 345.82342529 C-157.40948012 344.88201137 -158.92912026 343.93273967 -160.44433594 342.97650146 C-163.05216729 341.33613339 -165.67954428 339.73025295 -168.30908203 338.12493896 C-179.8829807 330.98954497 -190.62949 323.35481074 -200.89111328 314.43743896 C-201.86693359 313.60212646 -202.84275391 312.76681396 -203.84814453 311.90618896 C-208.98072654 307.41229407 -213.58033373 302.71903458 -217.89111328 297.43743896 C-218.70064453 296.4770874 -219.51017578 295.51673584 -220.34423828 294.52728271 C-232.10293922 280.30780637 -241.10953966 264.11663782 -248.89111328 247.43743896 C-249.25301758 246.66432373 -249.61492188 245.8912085 -249.98779297 245.09466553 C-252.33796129 240.04370701 -254.61293018 234.96449864 -256.83154297 229.85443115 C-257.79669101 227.65282618 -258.79779862 225.47147618 -259.80517578 223.28900146 C-265.68869396 210.00842249 -267.78915985 195.80105773 -270.18701172 181.57806396 C-270.86245334 177.57742536 -271.58036593 173.58568759 -272.30517578 169.59368896 C-277.97738194 138.11263953 -282.83825642 109.53254751 -266.90722656 80.36761475 C-265.95130433 78.55177593 -265.10255072 76.6806653 -264.26220703 74.80853271 C-258.68552923 63.22819251 -249.37030117 57.4125393 -238.89111328 50.43743896 C-236.93295508 49.10054646 -234.97595225 47.76196034 -233.02001953 46.42181396 C-195.87725486 21.14898356 -156.09782167 -1.4544214 -110.89111328 -7.56256104 C-109.86896729 -7.71483154 -109.86896729 -7.71483154 -108.82617188 -7.87017822 C-72.14881598 -13.24918438 -35.88902016 -7.51116293 0 0 Z " fill="#020202" transform="translate(891.89111328125,1346.5625610351563)"/>
<path d="M0 0 C0.69595276 0.00093658 1.39190552 0.00187317 2.10894775 0.00283813 C22.83601473 0.06323828 42.27568036 2.71054989 62.5 7.1875 C63.25968079 7.35459473 64.01936157 7.52168945 64.80206299 7.69384766 C69.97693038 8.8326451 75.14811503 9.98677607 80.315979 11.1569519 C82.04559015 11.54822956 83.77568515 11.93737532 85.50628662 12.32424927 C99.73879643 15.51761537 111.77190547 20.10607588 124.75 26.875 C125.64457413 27.34095078 125.64457413 27.34095078 126.55722046 27.8163147 C135.52991915 32.50128689 144.26657667 37.27930534 152.5 43.1875 C153.33797119 43.78280518 153.33797119 43.78280518 154.19287109 44.39013672 C167.02613289 53.61281722 177.50196373 65.07940998 187.26953125 77.44921875 C188.92887211 79.486343 190.60351283 81.40981354 192.38671875 83.33203125 C198.72827627 90.24680774 202.04827281 95.78836121 203.5 105.1875 C203.80539788 106.68793305 204.11991561 108.1865263 204.44140625 109.68359375 C206.28135445 118.31027825 207.8597909 126.96732015 209.1875 135.6875 C209.30673828 136.46287109 209.42597656 137.23824219 209.54882812 138.03710938 C211.52325764 151.51572939 211.70286321 164.90484384 211.6875 178.5 C211.68689575 179.4823764 211.6862915 180.46475281 211.68566895 181.47689819 C211.64994083 202.83991399 210.23021426 223.4272251 206.04882812 244.41064453 C205.68584447 246.24719974 205.33791753 248.08680144 205.00585938 249.92919922 C202.62948264 262.9779691 198.8916172 270.86056336 189.5 280.1875 C187.94872445 281.90805155 186.4063962 283.63673099 184.875 285.375 C183.41666667 286.97916667 181.95833333 288.58333333 180.5 290.1875 C179.736875 291.0434375 178.97375 291.899375 178.1875 292.78125 C171.3662302 300.43213369 164.3595146 307.60047824 156.5 314.1875 C155.99500977 314.61160156 155.49001953 315.03570313 154.96972656 315.47265625 C139.29872185 328.54852073 122.31508548 339.28488708 104.5 349.1875 C103.76265625 349.60209473 103.0253125 350.01668945 102.265625 350.44384766 C83.07527109 361.17462401 62.68889765 369.47060411 42.0625 377 C40.87793213 377.43892578 39.69336426 377.87785156 38.47290039 378.33007812 C37.36938232 378.72259766 36.26586426 379.11511719 35.12890625 379.51953125 C34.16025635 379.86733643 33.19160645 380.2151416 32.19360352 380.57348633 C26.2902106 381.91917954 21.70585031 378.99224956 16.57421875 376.37109375 C15.82662796 375.99517593 15.07903717 375.61925812 14.30879211 375.23194885 C11.93214127 374.03525707 9.5598105 372.83026934 7.1875 371.625 C5.57254396 370.80999512 3.95731248 369.99553578 2.34179688 369.18164062 C-1.60868752 367.18989958 -5.55531969 365.19070991 -9.5 363.1875 C-12.22652802 366.53918269 -14.13446838 370.1817479 -16.0390625 374.03515625 C-16.36538666 374.68826279 -16.69171082 375.34136932 -17.02792358 376.01426697 C-17.71387531 377.38918016 -18.3978916 378.76506046 -19.08007812 380.1418457 C-20.1242986 382.24858491 -21.17491881 384.35203623 -22.2265625 386.45507812 C-22.8936075 387.79408243 -23.5602868 389.13326898 -24.2265625 390.47265625 C-24.69686386 391.41492821 -24.69686386 391.41492821 -25.17666626 392.37623596 C-26.45441961 394.95979912 -27.5869495 397.44834851 -28.5 400.1875 C-32.68167326 398.55493754 -35.44467643 395.4788425 -38.515625 392.33203125 C-39.09028503 391.75216965 -39.66494507 391.17230804 -40.25701904 390.57487488 C-42.09284019 388.7212814 -43.92185415 386.8611614 -45.75 385 C-47.56465708 383.15751075 -49.38082553 381.31658013 -51.20013428 379.47868347 C-52.32953285 378.33726186 -53.45625477 377.19318243 -54.57965088 376.04585266 C-57.40122141 373.18931846 -60.28584955 370.4724167 -63.32885742 367.85205078 C-68.02609021 363.78870511 -72.40049212 359.4307549 -76.78515625 355.03515625 C-78.075037 353.74671059 -78.075037 353.74671059 -79.39097595 352.43223572 C-81.19815861 350.62572985 -83.00409392 348.81797538 -84.80883789 347.0090332 C-87.55438393 344.2581319 -90.30522546 341.51260779 -93.05664062 338.76757812 C-94.8206332 337.00292468 -96.5843155 335.23796103 -98.34765625 333.47265625 C-99.16138199 332.66095474 -99.97510773 331.84925323 -100.81349182 331.01295471 C-105.02952885 326.77975826 -109.09775706 322.47739012 -112.98381042 317.93836975 C-114.98092638 315.63213445 -117.07683884 313.42880786 -119.17871094 311.21850586 C-126.11996536 303.90301041 -132.48230553 296.27655318 -138.5 288.1875 C-139.28117187 287.14078125 -140.06234375 286.0940625 -140.8671875 285.015625 C-163.42180312 253.64207664 -176.67954436 206.01929444 -170.72827148 167.36206055 C-170.08253892 163.61574063 -169.30528045 159.90241229 -168.5 156.1875 C-168.29600586 155.23488281 -168.09201172 154.28226563 -167.88183594 153.30078125 C-161.09606207 122.12770652 -149.88355686 94.12184904 -127.78125 70.62109375 C-125.8762977 68.58892717 -124.08852299 66.51800733 -122.3125 64.375 C-114.32996263 55.20357409 -104.85889744 47.09578724 -95.375 39.53125 C-92.5093249 37.19510182 -89.72951809 34.78332586 -86.95458984 32.34106445 C-83.82696557 29.59511503 -80.66649222 26.88843713 -77.5 24.1875 C-76.62085938 23.43082031 -75.74171875 22.67414062 -74.8359375 21.89453125 C-59.05837 9.34760852 -38.81413877 5.03017888 -19.5 1.1875 C-18.69755859 1.00340576 -17.89511719 0.81931152 -17.06835938 0.62963867 C-11.45699016 -0.33634894 -5.6806186 -0.00976912 0 0 Z " fill="#020202" transform="translate(1257.5,857.8125)"/>
<path d="M0 0 C2.34043452 0.01070469 4.68009648 0.00003496 7.02050781 -0.01269531 C21.72972352 -0.02750357 36.18845965 1.38715934 50.59863281 4.38574219 C51.61497803 4.59384521 52.63132324 4.80194824 53.6784668 5.01635742 C62.12351957 6.78865128 70.52339768 8.7513497 78.90472412 10.80194092 C80.31003459 11.14565263 81.71599036 11.48673813 83.12261963 11.82501221 C95.01826784 14.70037843 103.52862744 18.60469013 113.28613281 25.94824219 C114.5433313 26.88579346 114.5433313 26.88579346 115.82592773 27.84228516 C122.02094937 32.48630312 128.06738388 37.25308061 133.97363281 42.26074219 C135.03175094 43.13371484 136.09037379 44.00607596 137.14941406 44.87792969 C168.09362809 70.59000877 189.02060024 100.5513518 199.47363281 139.57324219 C199.77406494 140.6939209 200.07449707 141.81459961 200.3840332 142.96923828 C202.32896809 150.39573448 204.02106634 157.83568432 205.41113281 165.38574219 C205.57484375 166.26657471 205.73855469 167.14740723 205.90722656 168.05493164 C207.47802412 177.12470973 206.90303435 185.06879943 205.28613281 194.07324219 C205.01494629 195.59220093 205.01494629 195.59220093 204.73828125 197.1418457 C202.98246354 206.67097051 200.75628504 215.98107001 197.97363281 225.26074219 C197.69535645 226.18999512 197.41708008 227.11924805 197.13037109 228.07666016 C188.61318035 256.01433558 175.74869792 280.84314442 156.97363281 303.26074219 C156.4942627 303.83630859 156.01489258 304.411875 155.52099609 305.00488281 C148.75708494 313.09570696 141.76519725 320.97423775 134.5078125 328.62548828 C132.93409847 330.30288112 131.39594091 332.00898128 129.85644531 333.71777344 C122.38846747 341.82235072 115.23069947 346.38289364 104.97363281 350.26074219 C103.49432533 350.84762694 102.01516348 351.4348789 100.53613281 352.02246094 C81.17849834 359.55620992 61.55967541 364.51765315 40.97363281 367.26074219 C40.33104523 367.34794525 39.68845764 367.43514832 39.02639771 367.5249939 C26.9257688 369.13342288 14.98567919 369.62199373 2.78613281 369.57324219 C1.88031464 369.57208405 0.97449646 369.5709259 0.04122925 369.56973267 C-16.80530281 369.52748304 -33.3145209 368.44481978 -50.02636719 366.26074219 C-51.03344727 366.1326416 -52.04052734 366.00454102 -53.078125 365.87255859 C-55.7520496 365.52360733 -58.42082996 365.15197703 -61.08886719 364.76074219 C-61.8267749 364.65463623 -62.56468262 364.54853027 -63.32495117 364.43920898 C-71.63247487 363.08217157 -77.16265046 358.84907528 -83.58886719 353.76074219 C-84.38099609 353.13852783 -85.173125 352.51631348 -85.98925781 351.87524414 C-107.60178388 334.81191894 -129.54805233 316.31276764 -145.80078125 293.93066406 C-147.07244009 292.19796557 -148.38426516 290.50231647 -149.70605469 288.80761719 C-162.98555411 271.57493109 -172.74851806 251.85779727 -182.02636719 232.26074219 C-182.50734863 231.3302002 -182.98833008 230.3996582 -183.48388672 229.44091797 C-189.50704207 216.8974378 -187.21090039 203.14201448 -185.48217773 189.77856445 C-185.21363387 187.69643319 -184.96169726 185.61277697 -184.71191406 183.52832031 C-183.19439171 171.17835913 -181.20356489 158.86959613 -177.33886719 147.01074219 C-177.08322998 146.21901611 -176.82759277 145.42729004 -176.56420898 144.61157227 C-168.86378845 121.37259821 -157.47822679 99.48484841 -144.57324219 78.74707031 C-142.96327077 76.15932586 -141.36982199 73.56180845 -139.77636719 70.96386719 C-138.71505585 69.24958905 -137.65259395 67.53602258 -136.58886719 65.82324219 C-136.10490479 65.03602783 -135.62094238 64.24881348 -135.12231445 63.43774414 C-130.8137076 56.57977214 -125.50147769 51.64926244 -119.21386719 46.63574219 C-118.56369629 46.1172168 -117.91352539 45.59869141 -117.24365234 45.06445312 C-110.08563092 39.4250074 -102.62819937 34.2789583 -95.02636719 29.26074219 C-94.00671875 28.57496094 -92.98707031 27.88917969 -91.93652344 27.18261719 C-85.02612065 22.7149192 -77.80844255 19.07910562 -70.40136719 15.51074219 C-69.44738037 15.05054688 -68.49339355 14.59035156 -67.51049805 14.11621094 C-58.71338934 9.95964335 -49.77618773 6.52265217 -40.33886719 4.13574219 C-39.13875 3.82378906 -37.93863281 3.51183594 -36.70214844 3.19042969 C-24.54502104 0.56155666 -12.39087935 -0.06703347 0 0 Z " fill="#020202" transform="translate(1683.0263671875,378.7392578125)"/>
</svg>
