<?xml version="1.0" encoding="UTF-8"?>
<svg version="1.1" xmlns="http://www.w3.org/2000/svg" width="600" height="300">
<path d="M0 0 C8 0 8 0 9.9609375 1.84375 C10.42757813 2.7203125 10.89421875 3.596875 11.375 4.5 C11.93058594 5.48613281 12.48617188 6.47226563 13.05859375 7.48828125 C13.35878418 8.04080566 13.65897461 8.59333008 13.96826172 9.16259766 C15.98534419 12.75478002 18.23566347 16.20675243 20.4375 19.6875 C21.31224272 21.08658689 22.18602514 22.4862749 23.05859375 23.88671875 C23.69925781 24.91410156 24.33992188 25.94148438 25 27 C25 26.34 25 25.68 25 25 C25.43159424 24.56905029 25.86318848 24.13810059 26.30786133 23.6940918 C28.37608688 21.62347902 29.61783781 19.43242117 31.07421875 16.89453125 C31.66009766 15.91162109 32.24597656 14.92871094 32.84960938 13.91601562 C34.07499158 11.84679956 35.28082319 9.76588049 36.46679688 7.67382812 C37.3552832 6.20526367 37.3552832 6.20526367 38.26171875 4.70703125 C38.78725342 3.8044458 39.31278809 2.90186035 39.85424805 1.97192383 C42 0 42 0 50 0 C50 15.18 50 30.36 50 46 C47.36 46 44.72 46 42 46 C41.67 36.43 41.34 26.86 41 17 C40.505 18.485 40.505 18.485 40 20 C39.34 20 38.68 20 38 20 C37.77183594 20.64324219 37.54367187 21.28648437 37.30859375 21.94921875 C35.532022 26.09101737 33.32408289 29.91918342 31.0625 33.8125 C30.61970703 34.60076172 30.17691406 35.38902344 29.72070312 36.20117188 C29.28822266 36.94560547 28.85574219 37.69003906 28.41015625 38.45703125 C28.01965088 39.13741455 27.62914551 39.81779785 27.22680664 40.51879883 C26.82196045 41.00759521 26.41711426 41.4963916 26 42 C25.01 42 24.02 42 23 42 C21.66141476 39.71125827 20.32898986 37.41930344 19 35.125 C18.6184375 34.47402344 18.236875 33.82304687 17.84375 33.15234375 C15 28.2265625 15 28.2265625 15 26 C14.34 25.67 13.68 25.34 13 25 C11.68 22.69 10.36 20.38 9 18 C8.67 27.24 8.34 36.48 8 46 C5.36 46 2.72 46 0 46 C0 30.82 0 15.64 0 0 Z " fill="#040403" transform="translate(486,125)"/>
<path d="M0 0 C1.24624146 -0.0038269 2.49248291 -0.00765381 3.77648926 -0.01159668 C7.08249947 -0.01501209 10.38775458 0.00105504 13.69366455 0.0234375 C15.71708158 0.03124356 17.73980472 0.02346479 19.76318359 0.00976562 C23.65494956 -0.01494702 27.54569121 -0.0119508 31.4375 0 C32.64281372 -0.00809692 33.84812744 -0.01619385 35.08996582 -0.02453613 C43.42961526 0.0689597 43.42961526 0.0689597 47.47607422 2.43945312 C49.34824737 4.68669039 49.90025735 5.63807363 49.84375 8.53125 C49.86308594 9.52125 49.86308594 9.52125 49.8828125 10.53125 C48.85066073 13.63984828 46.8890512 14.72692416 44.21875 16.53125 C41.44248962 17.03918457 41.44248962 17.03918457 38.39038086 17.04882812 C37.24246567 17.06143677 36.09455048 17.07404541 34.91184998 17.08703613 C33.68152542 17.07893921 32.45120087 17.07084229 31.18359375 17.0625 C29.91278458 17.0663269 28.6419754 17.07015381 27.33265686 17.07409668 C24.64821652 17.07681697 21.96523703 17.0714676 19.28100586 17.05273438 C15.84523847 17.02992092 12.41071937 17.04308812 8.97499752 17.06702423 C5.6903184 17.08497155 2.40578917 17.07239896 -0.87890625 17.0625 C-2.11125504 17.07059692 -3.34360382 17.07869385 -4.61329651 17.08703613 C-5.75805954 17.07442749 -6.90282257 17.06181885 -8.08227539 17.04882812 C-9.08867569 17.04564575 -10.09507599 17.04246338 -11.13197327 17.03918457 C-14.4853105 16.39626347 -15.67234412 15.15938645 -17.78125 12.53125 C-18.34765625 10.53125 -18.34765625 10.53125 -18.34375 8.53125 C-18.36566406 7.87125 -18.38757812 7.21125 -18.41015625 6.53125 C-15.89401409 -1.47039464 -6.70992672 -0.04507521 0 0 Z " fill="#010101" transform="translate(78.78125,115.46875)"/>
<path d="M0 0 C3.49971199 -0.1173794 6.99890955 -0.18763961 10.5 -0.25 C11.48226563 -0.28351563 12.46453125 -0.31703125 13.4765625 -0.3515625 C21.19695526 -0.45450107 26.69350305 0.8675292 32.375 6.25 C34.47164226 9.79816382 35.17954299 12.96608637 36 17 C35.34 17 34.68 17 34 17 C33.979375 17.86625 33.95875 18.7325 33.9375 19.625 C32.63479719 24.31473013 29.81832333 26.18859744 26 29 C26.47050781 29.66386719 26.94101562 30.32773438 27.42578125 31.01171875 C28.04839844 31.89472656 28.67101562 32.77773437 29.3125 33.6875 C30.23482422 34.99267578 30.23482422 34.99267578 31.17578125 36.32421875 C36 43.40042827 36 43.40042827 36 46 C32.51894933 47.16035022 30.63177474 47.68807777 27 47 C24.39241033 43.76770649 22.79981849 39.87461106 21.05273438 36.13085938 C18.84614569 31.62593468 18.84614569 31.62593468 14.67041016 29.24169922 C11.90234928 28.88455209 11.90234928 28.88455209 8 29 C8 34.61 8 40.22 8 46 C5.36 46 2.72 46 0 46 C-0.76106698 36.29639595 -1.12103064 26.73624233 -1 17 C-1 16.01 -1 15.02 -1 14 C-0.84376481 11.60346381 -0.6757931 9.20768098 -0.5 6.8125 C-0.4071875 5.54019531 -0.314375 4.26789063 -0.21875 2.95703125 C-0.1465625 1.98121094 -0.074375 1.00539063 0 0 Z M8 8 C8 12.62 8 17.24 8 22 C10.43868168 22.1079859 12.87259133 22.18726589 15.3125 22.25 C16.34793945 22.30027344 16.34793945 22.30027344 17.40429688 22.3515625 C21.58198855 22.4412917 21.58198855 22.4412917 24.95703125 20.20703125 C26.47704296 16.99052707 26.38225342 14.50398971 26 11 C24.54619291 8.70451513 23.46802166 8.1701897 20.9375 7.25 C16.53799696 6.87557421 12.38190979 7.47417082 8 8 Z M26 14 C27 16 27 16 27 16 Z " fill="#020202" transform="translate(444,125)"/>
<path d="M0 0 C3.0625 2 3.0625 2 5 4 C5.639375 3.34 6.27875 2.68 6.9375 2 C11.05694609 -0.69025051 14.20535789 -0.82024742 19 0 C23.49269668 2.07995217 25.55391382 4.2285343 27.41113281 8.80883789 C28.61043676 13.27142202 28.30383035 17.85289104 28.1875 22.4375 C28.16719727 23.96407227 28.16719727 23.96407227 28.14648438 25.52148438 C28.1113661 28.01488214 28.06218559 30.50715512 28 33 C25.03 33 22.06 33 19 33 C19.01160156 31.61425781 19.02320313 30.22851562 19.03515625 28.80078125 C19.04453792 26.97135552 19.05363772 25.14192832 19.0625 23.3125 C19.07506836 21.94448242 19.07506836 21.94448242 19.08789062 20.54882812 C19.09111328 19.66259766 19.09433594 18.77636719 19.09765625 17.86328125 C19.10289307 17.05157471 19.10812988 16.23986816 19.11352539 15.40356445 C18.9929791 12.85135327 18.559949 10.48973863 18 8 C13.545 8.495 13.545 8.495 9 9 C8.01356362 14.12283766 7.69032947 19.17748929 7.4375 24.375 C7.39431641 25.20644531 7.35113281 26.03789062 7.30664062 26.89453125 C7.20138195 28.92953228 7.10026928 30.96474703 7 33 C4.36 33 1.72 33 -1 33 C-1.01981934 32.31373535 -1.03963867 31.6274707 -1.06005859 30.92041016 C-1.15510945 27.82154221 -1.26486847 24.72336706 -1.375 21.625 C-1.4059375 20.54476562 -1.436875 19.46453125 -1.46875 18.3515625 C-1.50742187 17.3203125 -1.54609375 16.2890625 -1.5859375 15.2265625 C-1.63306885 13.79691162 -1.63306885 13.79691162 -1.68115234 12.33837891 C-1.78555796 9.81104824 -1.78555796 9.81104824 -4 8 C-7.59679066 8.32326553 -7.59679066 8.32326553 -11 9 C-11.96294592 11.88883775 -12.10507913 13.63867202 -12.0625 16.6328125 C-12.05476562 17.52097656 -12.04703125 18.40914062 -12.0390625 19.32421875 C-12.02617187 20.24847656 -12.01328125 21.17273438 -12 22.125 C-11.97460747 23.9608801 -11.95353481 25.79682682 -11.9375 27.6328125 C-11.92589844 28.44637207 -11.91429687 29.25993164 -11.90234375 30.09814453 C-12 32 -12 32 -13 33 C-15.67058851 33.14115161 -18.32432238 33.04247107 -21 33 C-21.19820989 28.97962032 -21.3816467 24.95869488 -21.5625 20.9375 C-21.61857422 19.80376953 -21.67464844 18.67003906 -21.73242188 17.50195312 C-21.97983976 11.84433079 -22.09078977 6.56706777 -21 1 C-19.95199219 1.01740234 -19.95199219 1.01740234 -18.8828125 1.03515625 C-17.97273437 1.04417969 -17.06265625 1.05320313 -16.125 1.0625 C-14.76761719 1.07990234 -14.76761719 1.07990234 -13.3828125 1.09765625 C-8.72110417 0.90660263 -4.96829248 -0.65958366 0 0 Z " fill="#030303" transform="translate(264,138)"/>
<path d="M0 0 C0 0.66 0 1.32 0 2 C0.9075 2.226875 1.815 2.45375 2.75 2.6875 C7.66438313 4.67215473 9.95350462 8.24516393 12 13 C13.02470643 19.34239349 12.16623062 24.15153338 8.421875 29.37890625 C6.48681802 31.58508385 4.68612975 32.82072353 2 34 C0.63875 34.680625 0.63875 34.680625 -0.75 35.375 C-5.52174819 36.29264388 -8.51180116 34.76807833 -13 33 C-13 37.62 -13 42.24 -13 47 C-15.97 47 -18.94 47 -22 47 C-22.16956119 42.35956021 -22.32987949 37.71891935 -22.48217773 33.07788086 C-22.53506698 31.50390342 -22.59034386 29.93000411 -22.64819336 28.35620117 C-22.9724538 19.48838292 -23.15830834 10.82802469 -22 2 C-20.8562793 2.0306958 -20.8562793 2.0306958 -19.68945312 2.06201172 C-12.84244695 2.22237189 -6.61842606 0 0 0 Z M-12 10 C-14.68819938 14.03229907 -14.67303734 17.26381128 -14 22 C-12.2077194 25.18627662 -11.03082709 26.55423693 -7.6875 28 C-3.81982069 28 -1.34664146 26.89432535 2 25 C4.19711983 21.46550288 4.59755219 18.09750076 4 14 C1.44975635 10.89835231 -0.17699247 9.27433584 -4 8 C-7.78149076 8 -8.964349 8.07742103 -12 10 Z " fill="#030202" transform="translate(321,137)"/>
<path d="M0 0 C2.20637555 1.72866488 3.66906843 3.27871649 5.12890625 5.66796875 C5.12890625 6.65796875 5.12890625 7.64796875 5.12890625 8.66796875 C2.12890625 10.66796875 2.12890625 10.66796875 -0.24609375 10.60546875 C-3.68091506 9.37874685 -5.38337081 7.28662448 -7.87109375 4.66796875 C-14.13233412 2.58088863 -20.81550975 3.11824917 -26.87109375 5.66796875 C-26.87109375 6.32796875 -26.87109375 6.98796875 -26.87109375 7.66796875 C-27.53109375 7.66796875 -28.19109375 7.66796875 -28.87109375 7.66796875 C-28.87109375 8.98796875 -28.87109375 10.30796875 -28.87109375 11.66796875 C-29.53109375 11.66796875 -30.19109375 11.66796875 -30.87109375 11.66796875 C-31.57676621 21.21404512 -31.57676621 21.21404512 -27.87109375 29.66796875 C-22.22155597 34.02282079 -16.87624364 34.41461794 -9.87109375 34.66796875 C-9.54109375 34.00796875 -9.21109375 33.34796875 -8.87109375 32.66796875 C-8.06671875 32.19359375 -7.26234375 31.71921875 -6.43359375 31.23046875 C-3.63549655 29.7713283 -3.63549655 29.7713283 -1.87109375 26.66796875 C0.10890625 27.32796875 2.08890625 27.98796875 4.12890625 28.66796875 C4.12890625 33.44247165 3.25679317 34.65821542 0.15234375 38.046875 C-5.13182181 42.2803281 -11.91715611 42.96323664 -18.49609375 42.66796875 C-25.07121505 41.76752418 -30.45082142 39.61815334 -34.7265625 34.40625 C-38.72690723 28.50550398 -40.11475346 24.5015744 -40.24609375 17.35546875 C-40.30216797 16.21561523 -40.30216797 16.21561523 -40.359375 15.05273438 C-40.42541762 10.82967597 -40.30919244 9.20473169 -37.546875 5.8203125 C-36.66386719 5.11003906 -35.78085937 4.39976562 -34.87109375 3.66796875 C-34.32066406 3.10851562 -33.77023437 2.5490625 -33.203125 1.97265625 C-23.1776757 -7.4600287 -11.18171174 -6.98183927 0 0 Z " fill="#030302" transform="translate(431.87109375,129.33203125)"/>
<path d="M0 0 C1.11375 1.0209375 1.11375 1.0209375 2.25 2.0625 C2.25 5.0625 2.25 5.0625 1 6.8125 C-0.75 8.0625 -0.75 8.0625 -2.6875 7.875 C-4.75 7.0625 -4.75 7.0625 -6.5625 6.02734375 C-9.13220721 4.89391932 -11.01347819 4.79561299 -13.8125 4.8125 C-14.66972656 4.80734375 -15.52695313 4.8021875 -16.41015625 4.796875 C-19.02052798 4.91257512 -19.02052798 4.91257512 -21.75 7.0625 C-21.42 9.0425 -21.09 11.0225 -20.75 13.0625 C-17.96079611 13.9255406 -15.16913928 14.77822307 -12.375 15.625 C-11.5809375 15.87185547 -10.786875 16.11871094 -9.96875 16.37304688 C-9.20820313 16.60185547 -8.44765625 16.83066406 -7.6640625 17.06640625 C-6.9623291 17.28111572 -6.2605957 17.4958252 -5.53759766 17.71704102 C-3.65550191 18.26891777 -3.65550191 18.26891777 -1.75 17.0625 C-0.25 19.5625 -0.25 19.5625 1.25 22.0625 C1.8275 22.805 2.405 23.5475 3 24.3125 C4.86481367 28.41509007 4.70845794 31.81427379 3.25 36.0625 C0.03959433 40.42939187 -4.29779095 42.88747238 -9.58203125 43.87890625 C-16.69221488 44.48102991 -23.96056145 43.53228711 -29.75 39.0625 C-30.96875 36.92578125 -30.96875 36.92578125 -31.75 35.0625 C-30.43 33.7425 -29.11 32.4225 -27.75 31.0625 C-23.75 33.0625 -23.75 33.0625 -21.9921875 34.12109375 C-19.0967437 35.3367766 -16.75553981 35.29230459 -13.625 35.25 C-12.04332031 35.24033203 -12.04332031 35.24033203 -10.4296875 35.23046875 C-7.77830021 35.23930958 -7.77830021 35.23930958 -5.75 34.0625 C-4.65963072 31.0887656 -4.71135834 30.17842499 -5.75 27.0625 C-9.23279791 25.54273364 -12.62569457 24.3630056 -16.29296875 23.3828125 C-21.98331658 21.85046467 -25.55705037 20.25544963 -29.75 16.0625 C-31.48383086 12.59483829 -31.2165538 8.85407105 -30.75 5.0625 C-28.28864507 0.70779513 -25.32634772 -1.06960297 -20.75 -2.9375 C-14.06166729 -4.72781128 -5.93455467 -3.68253989 0 0 Z " fill="#030302" transform="translate(218.75,127.9375)"/>
<path d="M0 0 C3.92512014 2.38759662 6.44778852 4.84755865 8.4375 9 C9.01814582 12.09677771 9.21924764 14.85745044 9 18 C7.31699331 19.68300669 5.17991273 19.22809077 2.87109375 19.31640625 C1.83662109 19.35830078 0.80214844 19.40019531 -0.26367188 19.44335938 C-1.35228516 19.48267578 -2.44089844 19.52199219 -3.5625 19.5625 C-5.2012207 19.62727539 -5.2012207 19.62727539 -6.87304688 19.69335938 C-9.58189564 19.79982068 -12.29083992 19.90183516 -15 20 C-12.93863821 23.21598058 -12.93863821 23.21598058 -9.51953125 24.609375 C-8.17955078 24.67898437 -8.17955078 24.67898437 -6.8125 24.75 C-5.91144531 24.80671875 -5.01039063 24.8634375 -4.08203125 24.921875 C-3.39496094 24.94765625 -2.70789063 24.9734375 -2 25 C-2 24.34 -2 23.68 -2 23 C0.25 21.8125 0.25 21.8125 3 21 C5.3125 22.375 5.3125 22.375 7 24 C6.875 25.75 6.875 25.75 6 28 C1.95567618 31.27397642 -1.87459628 33.10080636 -7 34 C-12.58345316 33.10265931 -16.89013669 30.81250886 -21 27 C-24.614021 21.98700313 -24.65230092 16.95579105 -24 11 C-23.03469156 7.07441233 -22.22462992 4.87799352 -18.90234375 2.49609375 C-12.04594627 -1.41706969 -7.55637442 -2.74435489 0 0 Z M-13.9375 8.4375 C-16.10450157 10.58159789 -16.10450157 10.58159789 -16 12 C-10.39 12 -4.78 12 1 12 C-1.32251426 7.11504475 -1.32251426 7.11504475 -4 6 C-8.57909845 5.4816115 -10.32234922 5.43769403 -13.9375 8.4375 Z " fill="#020202" transform="translate(375,139)"/>
<path d="M0 0 C2.52301046 2.83838677 3.0149768 4.26613701 2.9375 8.0625 C1.78230874 11.68209927 1.13248007 12.8077294 -2 15 C-5.67440697 15.5545765 -9.29230777 15.4660157 -13 15.375 C-13.99773437 15.37371094 -14.99546875 15.37242187 -16.0234375 15.37109375 C-24.30224457 15.27121538 -24.30224457 15.27121538 -28 13 C-30.0815902 10.32366974 -29.99587591 8.88246332 -29.875 5.4375 C-29 2 -29 2 -27.49609375 0.3359375 C-23.81093599 -1.63640046 -20.31263776 -1.64829874 -16.1875 -1.8125 C-15.40568359 -1.86341797 -14.62386719 -1.91433594 -13.81835938 -1.96679688 C-8.76197168 -2.21602568 -4.7514699 -1.79472935 0 0 Z " fill="#010101" transform="translate(104,142)"/>
<path d="M0 0 C2.64 0 5.28 0 8 0 C8 15.18 8 30.36 8 46 C5.36 46.33 2.72 46.66 0 47 C0 31.49 0 15.98 0 0 Z " fill="#040404" transform="translate(338,125)"/>
<path d="M0 0 C3.30583039 2.20388692 3.88814046 3.58984836 4.9375 7.4375 C5.00754154 11.42986787 4.46465254 12.91918433 2 16 C-1.70407329 18.46938219 -4.70378886 18.66289195 -9 18 C-12.79159857 15.9393486 -13.79217364 14.52901255 -15.375 10.5 C-16.31400966 5.24154589 -16.31400966 5.24154589 -15 3 C-9.64937906 -1.04026479 -6.488588 -1.70192472 0 0 Z " fill="#020202" transform="translate(101,165)"/>
<path d="M0 0 C3.66182182 2.64897749 4.84097547 4.01051403 5.5625 8.5 C4.91877781 12.50538252 3.84054174 14.15945826 1 17 C-2.22402446 18.61201223 -5.51392867 18.59436848 -9 18 C-12.02877049 15.74453261 -13.56968943 14.048882 -15 10.5625 C-15 6.97087785 -13.95189051 4.99289878 -12 2 C-7.97139968 -1.4690725 -5.03308547 -1.43802442 0 0 Z " fill="#020202" transform="translate(146,115)"/>
<path d="M0 0 C2.9375 1.5 2.9375 1.5 5 4 C5.78169514 7.16823407 5.81213598 9.83605357 5 13 C2.62257546 16.15751696 -0.25905409 17.75301803 -4 19 C-4.66 18.67 -5.32 18.34 -6 18 C-6.33 18.66 -6.66 19.32 -7 20 C-13.82431679 13.3552705 -13.82431679 13.3552705 -14.4375 8.625 C-13.89086006 4.09569763 -12.48343405 2.8199228 -9 0 C-5.81229009 -1.59385496 -3.40972958 -0.75129635 0 0 Z " fill="#020202" transform="translate(124,140)"/>
<path d="M0 0 C2.64 0 5.28 0 8 0 C8.94373083 3.90520265 9.04984848 7.38688564 8.87890625 11.39453125 C8.83056641 12.59658203 8.78222656 13.79863281 8.73242188 15.03710938 C8.67634766 16.28298828 8.62027344 17.52886719 8.5625 18.8125 C8.51029297 20.07771484 8.45808594 21.34292969 8.40429688 22.64648438 C8.27486616 25.76458806 8.13990871 28.88235178 8 32 C5.36 32 2.72 32 0 32 C-0.74080644 21.20701997 -1.25763948 10.77700295 0 0 Z " fill="#070707" transform="translate(228,139)"/>
<path d="M0 0 C2.5 1.1875 2.5 1.1875 5 3 C5.4375 5.5625 5.4375 5.5625 5 8 C3 10 3 10 0 10.25 C-3 10 -3 10 -5 8 C-5.4375 5.5625 -5.4375 5.5625 -5 3 C-2.5 1.1875 -2.5 1.1875 0 0 Z " fill="#030303" transform="translate(232,124)"/>
<path d="M0 0 C3 3 3 3 3.2487793 4.99291992 C3.19117432 5.73131104 3.13356934 6.46970215 3.07421875 7.23046875 C3.01943359 8.03291016 2.96464844 8.83535156 2.90820312 9.66210938 C2.83537109 10.49548828 2.76253906 11.32886719 2.6875 12.1875 C2.62626953 13.03248047 2.56503906 13.87746094 2.50195312 14.74804688 C2.34881209 16.83312095 2.17625843 18.91675276 2 21 C-0.31 21 -2.62 21 -5 21 C-5 20.67 -5 20.34 -5 20 C-3.35 19.67 -1.7 19.34 0 19 C0 12.73 0 6.46 0 0 Z " fill="#0E0D0D" transform="translate(269,150)"/>
<path d="M0 0 C2 1 2 1 2 1 Z " fill="#111111" transform="translate(293,174)"/>
<path d="M0 0 C2 1 2 1 2 1 Z " fill="#191919" transform="translate(265,173)"/>
<path d="M0 0 C2 1 2 1 2 1 Z " fill="#040404" transform="translate(450,172)"/>
<path d="M0 0 C2 1 2 1 2 1 Z " fill="#0D0D0D" transform="translate(76,158)"/>
<path d="" fill="#0F0F0E" transform="translate(0,0)"/>
<path d="" fill="#0F0F0F" transform="translate(0,0)"/>
<path d="" fill="#080808" transform="translate(0,0)"/>
<path d="M0 0 C2 1 2 1 2 1 Z " fill="#0F0F0F" transform="translate(352,140)"/>
<path d="M0 0 C2 1 2 1 2 1 Z " fill="#090909" transform="translate(85,137)"/>
<path d="" fill="#070707" transform="translate(0,0)"/>
<path d="" fill="#0D0D0D" transform="translate(0,0)"/>
<path d="" fill="#101010" transform="translate(0,0)"/>
<path d="" fill="#080808" transform="translate(0,0)"/>
<path d="" fill="#080808" transform="translate(0,0)"/>
<path d="" fill="#020202" transform="translate(0,0)"/>
<path d="" fill="#040404" transform="translate(0,0)"/>
<path d="" fill="#100F0F" transform="translate(0,0)"/>
<path d="" fill="#050505" transform="translate(0,0)"/>
<path d="" fill="#080808" transform="translate(0,0)"/>
<path d="" fill="#0C0C0C" transform="translate(0,0)"/>
<path d="" fill="#050505" transform="translate(0,0)"/>
<path d="" fill="#0B0B0B" transform="translate(0,0)"/>
<path d="" fill="#000000" transform="translate(0,0)"/>
<path d="" fill="#040404" transform="translate(0,0)"/>
<path d="" fill="#0E0E0E" transform="translate(0,0)"/>
<path d="" fill="#0E0E0E" transform="translate(0,0)"/>
<path d="" fill="#0D0C0C" transform="translate(0,0)"/>
<path d="" fill="#0E0D0D" transform="translate(0,0)"/>
<path d="" fill="#0E0E0E" transform="translate(0,0)"/>
<path d="" fill="#111111" transform="translate(0,0)"/>
<path d="" fill="#100F0F" transform="translate(0,0)"/>
<path d="" fill="#111010" transform="translate(0,0)"/>
<path d="" fill="#100F0F" transform="translate(0,0)"/>
<path d="" fill="#0E0D0D" transform="translate(0,0)"/>
<path d="" fill="#0E0E0E" transform="translate(0,0)"/>
<path d="" fill="#111111" transform="translate(0,0)"/>
<path d="" fill="#111111" transform="translate(0,0)"/>
<path d="" fill="#181818" transform="translate(0,0)"/>
<path d="" fill="#161616" transform="translate(0,0)"/>
<path d="" fill="#0C0C0C" transform="translate(0,0)"/>
<path d="" fill="#020202" transform="translate(0,0)"/>
<path d="" fill="#121212" transform="translate(0,0)"/>
<path d="" fill="#090909" transform="translate(0,0)"/>
<path d="" fill="#050505" transform="translate(0,0)"/>
<path d="" fill="#040404" transform="translate(0,0)"/>
<path d="" fill="#0E0E0E" transform="translate(0,0)"/>
<path d="" fill="#0E0E0E" transform="translate(0,0)"/>
<path d="" fill="#070707" transform="translate(0,0)"/>
<path d="" fill="#0A0A0A" transform="translate(0,0)"/>
<path d="" fill="#121212" transform="translate(0,0)"/>
<path d="" fill="#020202" transform="translate(0,0)"/>
<path d="" fill="#080808" transform="translate(0,0)"/>
<path d="" fill="#020202" transform="translate(0,0)"/>
<path d="" fill="#0E0E0E" transform="translate(0,0)"/>
<path d="" fill="#080707" transform="translate(0,0)"/>
<path d="" fill="#020202" transform="translate(0,0)"/>
<path d="" fill="#101010" transform="translate(0,0)"/>
<path d="" fill="#181818" transform="translate(0,0)"/>
<path d="" fill="#0A0A0A" transform="translate(0,0)"/>
<path d="" fill="#020202" transform="translate(0,0)"/>
<path d="" fill="#030303" transform="translate(0,0)"/>
<path d="" fill="#000000" transform="translate(0,0)"/>
<path d="" fill="#101010" transform="translate(0,0)"/>
<path d="" fill="#101010" transform="translate(0,0)"/>
<path d="" fill="#111111" transform="translate(0,0)"/>
<path d="" fill="#090909" transform="translate(0,0)"/>
<path d="" fill="#050505" transform="translate(0,0)"/>
<path d="" fill="#040404" transform="translate(0,0)"/>
<path d="" fill="#040404" transform="translate(0,0)"/>
<path d="" fill="#050505" transform="translate(0,0)"/>
<path d="" fill="#030303" transform="translate(0,0)"/>
<path d="" fill="#030303" transform="translate(0,0)"/>
<path d="" fill="#080808" transform="translate(0,0)"/>
<path d="" fill="#080808" transform="translate(0,0)"/>
<path d="" fill="#040404" transform="translate(0,0)"/>
<path d="" fill="#070706" transform="translate(0,0)"/>
<path d="" fill="#151515" transform="translate(0,0)"/>
<path d="" fill="#121211" transform="translate(0,0)"/>
<path d="" fill="#090909" transform="translate(0,0)"/>
<path d="" fill="#060606" transform="translate(0,0)"/>
<path d="" fill="#0E0D0D" transform="translate(0,0)"/>
<path d="" fill="#0F0F0F" transform="translate(0,0)"/>
<path d="" fill="#0F0F0F" transform="translate(0,0)"/>
<path d="" fill="#040404" transform="translate(0,0)"/>
<path d="" fill="#080808" transform="translate(0,0)"/>
<path d="" fill="#090909" transform="translate(0,0)"/>
<path d="" fill="#010101" transform="translate(0,0)"/>
<path d="" fill="#111111" transform="translate(0,0)"/>
<path d="" fill="#242323" transform="translate(0,0)"/>
<path d="" fill="#111110" transform="translate(0,0)"/>
<path d="" fill="#030303" transform="translate(0,0)"/>
<path d="" fill="#090909" transform="translate(0,0)"/>
<path d="" fill="#090909" transform="translate(0,0)"/>
<path d="" fill="#0E0E0E" transform="translate(0,0)"/>
<path d="" fill="#060606" transform="translate(0,0)"/>
<path d="" fill="#0A0A0A" transform="translate(0,0)"/>
<path d="" fill="#010101" transform="translate(0,0)"/>
<path d="" fill="#090909" transform="translate(0,0)"/>
<path d="" fill="#040404" transform="translate(0,0)"/>
<path d="" fill="#090909" transform="translate(0,0)"/>
<path d="" fill="#000000" transform="translate(0,0)"/>
<path d="" fill="#000000" transform="translate(0,0)"/>
<path d="" fill="#111110" transform="translate(0,0)"/>
<path d="" fill="#020202" transform="translate(0,0)"/>
<path d="" fill="#020202" transform="translate(0,0)"/>
<path d="" fill="#101010" transform="translate(0,0)"/>
<path d="" fill="#111111" transform="translate(0,0)"/>
<path d="" fill="#080808" transform="translate(0,0)"/>
<path d="" fill="#181818" transform="translate(0,0)"/>
<path d="" fill="#0F0F0F" transform="translate(0,0)"/>
<path d="" fill="#111111" transform="translate(0,0)"/>
<path d="" fill="#0D0D0D" transform="translate(0,0)"/>
<path d="" fill="#050505" transform="translate(0,0)"/>
<path d="" fill="#101010" transform="translate(0,0)"/>
<path d="" fill="#070707" transform="translate(0,0)"/>
<path d="" fill="#101010" transform="translate(0,0)"/>
<path d="" fill="#0F0F0F" transform="translate(0,0)"/>
<path d="" fill="#1B1B1B" transform="translate(0,0)"/>
<path d="" fill="#111010" transform="translate(0,0)"/>
<path d="" fill="#0F0F0F" transform="translate(0,0)"/>
<path d="" fill="#040404" transform="translate(0,0)"/>
<path d="" fill="#050505" transform="translate(0,0)"/>
<path d="" fill="#111111" transform="translate(0,0)"/>
<path d="" fill="#040404" transform="translate(0,0)"/>
<path d="" fill="#090909" transform="translate(0,0)"/>
<path d="" fill="#121212" transform="translate(0,0)"/>
<path d="" fill="#090909" transform="translate(0,0)"/>
<path d="" fill="#111111" transform="translate(0,0)"/>
<path d="" fill="#050505" transform="translate(0,0)"/>
<path d="" fill="#070707" transform="translate(0,0)"/>
<path d="" fill="#070707" transform="translate(0,0)"/>
<path d="" fill="#0D0D0D" transform="translate(0,0)"/>
<path d="" fill="#212121" transform="translate(0,0)"/>
<path d="" fill="#070707" transform="translate(0,0)"/>
<path d="" fill="#060605" transform="translate(0,0)"/>
<path d="" fill="#0F0F0F" transform="translate(0,0)"/>
<path d="" fill="#050504" transform="translate(0,0)"/>
<path d="" fill="#100F0F" transform="translate(0,0)"/>
<path d="" fill="#050505" transform="translate(0,0)"/>
<path d="" fill="#121212" transform="translate(0,0)"/>
<path d="" fill="#0D0C0C" transform="translate(0,0)"/>
<path d="" fill="#020202" transform="translate(0,0)"/>
<path d="" fill="#181818" transform="translate(0,0)"/>
<path d="" fill="#191918" transform="translate(0,0)"/>
<path d="" fill="#0B0B0B" transform="translate(0,0)"/>
<path d="" fill="#0D0D0C" transform="translate(0,0)"/>
<path d="" fill="#030303" transform="translate(0,0)"/>
<path d="" fill="#090909" transform="translate(0,0)"/>
<path d="" fill="#222221" transform="translate(0,0)"/>
<path d="" fill="#050505" transform="translate(0,0)"/>
<path d="" fill="#0F0E0E" transform="translate(0,0)"/>
<path d="" fill="#0F0F0F" transform="translate(0,0)"/>
<path d="" fill="#0F0F0F" transform="translate(0,0)"/>
<path d="" fill="#111111" transform="translate(0,0)"/>
<path d="" fill="#090909" transform="translate(0,0)"/>
<path d="" fill="#020202" transform="translate(0,0)"/>
<path d="" fill="#111111" transform="translate(0,0)"/>
<path d="" fill="#101010" transform="translate(0,0)"/>
<path d="" fill="#050505" transform="translate(0,0)"/>
<path d="" fill="#0F0F0F" transform="translate(0,0)"/>
<path d="" fill="#060606" transform="translate(0,0)"/>
<path d="" fill="#111110" transform="translate(0,0)"/>
<path d="" fill="#101010" transform="translate(0,0)"/>
<path d="" fill="#070707" transform="translate(0,0)"/>
<path d="" fill="#020202" transform="translate(0,0)"/>
<path d="" fill="#080807" transform="translate(0,0)"/>
<path d="" fill="#0F0F0F" transform="translate(0,0)"/>
<path d="" fill="#060605" transform="translate(0,0)"/>
<path d="" fill="#090909" transform="translate(0,0)"/>
<path d="" fill="#0F0F0F" transform="translate(0,0)"/>
<path d="" fill="#080808" transform="translate(0,0)"/>
<path d="" fill="#131313" transform="translate(0,0)"/>
<path d="" fill="#030302" transform="translate(0,0)"/>
<path d="" fill="#050505" transform="translate(0,0)"/>
<path d="" fill="#121212" transform="translate(0,0)"/>
<path d="" fill="#090909" transform="translate(0,0)"/>
<path d="" fill="#030303" transform="translate(0,0)"/>
<path d="" fill="#121212" transform="translate(0,0)"/>
<path d="" fill="#101010" transform="translate(0,0)"/>
<path d="" fill="#070607" transform="translate(0,0)"/>
<path d="" fill="#080808" transform="translate(0,0)"/>
<path d="" fill="#090909" transform="translate(0,0)"/>
<path d="" fill="#050505" transform="translate(0,0)"/>
<path d="" fill="#0A0A0A" transform="translate(0,0)"/>
<path d="" fill="#060505" transform="translate(0,0)"/>
<path d="" fill="#070707" transform="translate(0,0)"/>
<path d="" fill="#080808" transform="translate(0,0)"/>
<path d="" fill="#060606" transform="translate(0,0)"/>
<path d="" fill="#030303" transform="translate(0,0)"/>
<path d="" fill="#0F0F0F" transform="translate(0,0)"/>
<path d="" fill="#0A0A0A" transform="translate(0,0)"/>
<path d="" fill="#090909" transform="translate(0,0)"/>
<path d="" fill="#010101" transform="translate(0,0)"/>
<path d="" fill="#090909" transform="translate(0,0)"/>
<path d="" fill="#040404" transform="translate(0,0)"/>
<path d="" fill="#191918" transform="translate(0,0)"/>
<path d="" fill="#0E0E0E" transform="translate(0,0)"/>
<path d="" fill="#0D0D0D" transform="translate(0,0)"/>
<path d="" fill="#050505" transform="translate(0,0)"/>
<path d="" fill="#040404" transform="translate(0,0)"/>
<path d="" fill="#080808" transform="translate(0,0)"/>
<path d="" fill="#101010" transform="translate(0,0)"/>
<path d="" fill="#090909" transform="translate(0,0)"/>
<path d="" fill="#020202" transform="translate(0,0)"/>
<path d="" fill="#090909" transform="translate(0,0)"/>
<path d="" fill="#080808" transform="translate(0,0)"/>
<path d="" fill="#100F0F" transform="translate(0,0)"/>
<path d="" fill="#0F0F0E" transform="translate(0,0)"/>
<path d="" fill="#040404" transform="translate(0,0)"/>
<path d="" fill="#0E0E0E" transform="translate(0,0)"/>
<path d="" fill="#141313" transform="translate(0,0)"/>
<path d="" fill="#0D0D0D" transform="translate(0,0)"/>
<path d="" fill="#090909" transform="translate(0,0)"/>
<path d="" fill="#050505" transform="translate(0,0)"/>
<path d="" fill="#10100F" transform="translate(0,0)"/>
<path d="" fill="#161515" transform="translate(0,0)"/>
<path d="" fill="#121111" transform="translate(0,0)"/>
<path d="" fill="#121212" transform="translate(0,0)"/>
<path d="" fill="#121212" transform="translate(0,0)"/>
<path d="" fill="#090909" transform="translate(0,0)"/>
<path d="" fill="#0F0F0F" transform="translate(0,0)"/>
<path d="" fill="#0E0E0E" transform="translate(0,0)"/>
<path d="" fill="#0D0D0D" transform="translate(0,0)"/>
<path d="" fill="#0D0C0C" transform="translate(0,0)"/>
<path d="" fill="#121111" transform="translate(0,0)"/>
<path d="" fill="#131212" transform="translate(0,0)"/>
<path d="" fill="#0E0E0E" transform="translate(0,0)"/>
<path d="" fill="#0D0D0D" transform="translate(0,0)"/>
<path d="" fill="#111010" transform="translate(0,0)"/>
<path d="" fill="#121111" transform="translate(0,0)"/>
<path d="" fill="#0D0D0D" transform="translate(0,0)"/>
<path d="" fill="#111111" transform="translate(0,0)"/>
<path d="" fill="#080808" transform="translate(0,0)"/>
<path d="" fill="#020202" transform="translate(0,0)"/>
<path d="" fill="#040404" transform="translate(0,0)"/>
<path d="" fill="#020202" transform="translate(0,0)"/>
<path d="" fill="#050505" transform="translate(0,0)"/>
<path d="" fill="#040404" transform="translate(0,0)"/>
<path d="" fill="#030303" transform="translate(0,0)"/>
<path d="" fill="#090909" transform="translate(0,0)"/>
<path d="" fill="#080808" transform="translate(0,0)"/>
</svg>
